# xmcd CD database file
#
# Track frame offsets:
#	187
#	19805
#	39710
#	60095
#
# Disc length: 1074 seconds
#
# Revision: 4
# Processed by: cddbd v1.5.1PL0 Copyright (c) Steve Scherf et al.
# Submitted via: CDex 1.60beta1-cs1
#
DISCID=27043004
DTITLE=TOKYO No.1 SOUL SET - 夜明け前
DYEAR=1900
DGENRE=Hip-Hop
TTITLE0=夜明け前
TTITLE1=Key word
TTITLE2=Key world
TTITLE3=(version)
EXTD=
EXTT0=
EXTT1=
EXTT2=
EXTT3=
PLAYORDER=
